<?xml version="1.0" encoding="UTF-8" standalone="no"?>
<!-- Created with Inkscape (http://www.inkscape.org/) -->

<svg
   width="1280"
   height="720"
   viewBox="0 0 1280 720"
   version="1.1"
   id="svg5"
   inkscape:version="1.2.2 (b0a8486541, 2022-12-01)"
   sodipodi:docname="git-graph.svg"
   xmlns:inkscape="http://www.inkscape.org/namespaces/inkscape"
   xmlns:sodipodi="http://sodipodi.sourceforge.net/DTD/sodipodi-0.dtd"
   xmlns="http://www.w3.org/2000/svg"
   xmlns:svg="http://www.w3.org/2000/svg">
  <sodipodi:namedview
     id="namedview7"
     pagecolor="#ffffff"
     bordercolor="#000000"
     borderopacity="0.25"
     inkscape:showpageshadow="2"
     inkscape:pageopacity="0.0"
     inkscape:pagecheckerboard="0"
     inkscape:deskcolor="#d1d1d1"
     inkscape:document-units="mm"
     showgrid="false"
     inkscape:zoom="0.5946522"
     inkscape:cx="792.90045"
     inkscape:cy="384.25823"
     inkscape:window-width="1900"
     inkscape:window-height="1025"
     inkscape:window-x="2890"
     inkscape:window-y="1125"
     inkscape:window-maximized="1"
     inkscape:current-layer="layer1" />
  <defs
     id="defs2" />
  <g
     inkscape:label="Calque 1"
     inkscape:groupmode="layer"
     id="layer1">
    <path
       d="m 521.14038,57.164621 c -0.98365,-0.0022 -2.01895,0.004 -3.05445,0.01632 -2.69202,0.03229 -5.3836,0.125247 -7.97203,0.274319 -4.71107,0.27343 -11.69988,0.617594 -15.53113,0.760505 -13.30361,-0.208784 -32.70708,3.028555 -44.1096,3.090692 -6.44504,-3.46947 -16.29942,-2.532632 -22.26148,-2.572091 -15.43027,-0.546723 -29.47127,1.794843 -43.70465,2.604493 -13.61312,1.229481 -11.4557,0.773248 -17.02183,2.330191 -6.66447,2.549959 -13.8301,0.992333 -8.54261,8.284519 10.40141,2.375775 6.17181,3.063784 4.41659,4.902292 -6.25644,1.983816 -8.74757,0.341341 -13.47647,0.27547 -2.19834,-1.887696 -9.95957,0.8868 -7.90974,0.986232 0.34588,4.360001 -4.70835,4.639532 -3.96641,0.129776 -4.62402,1.050363 -6.38097,1.18509 -16.14228,-0.241923 -1.21145,0.46391 -2.94508,2.232915 -2.18403,2.232915 2.32759,2.105197 8.18418,3.805027 9.7069,3.752846 6.96428,-3.074794 5.98287,1.899625 7.03446,1.942416 6.39364,0.07634 10.24366,-5.653019 13.41426,-5.356078 0.78847,1.31881 -4.71191,3.822118 -2.88316,4.384828 4.01224,0.788567 21.21513,1.166979 22.03788,0.485022 2.72873,-0.119979 13.02736,0.582022 13.2485,-3.073335 -9.49887,-0.10391 -29.39929,2.380598 -24.01142,-2.135726 9.94386,-3.178221 18.51363,0.591304 26.38777,1.034895 0.48163,-1.44867 7.33732,-2.864259 7.46059,-3.997078 3.04514,-3.622637 10.31624,-3.675341 12.65252,-4.756417 4.20959,-2.690533 8.25619,-3.636123 11.64794,-3.96465 6.56906,-1.817908 10.63359,-2.632441 17.63295,-0.760531 0,1.019539 -2.43293,1.722379 -7.24777,2.119526 -3.18665,0.595727 -20.88697,0.695822 -19.44527,5.728797 13.06367,8.987557 11.46176,1.644475 26.9004,5.16163 12.72271,2.482812 -1.53388,10.723028 2.01971,15.713103 -2.36148,5.888271 -3.94146,12.919751 -4.81478,16.682701 2.2556,1.85449 -1.06933,4.95353 0.36256,11.76456 -0.89492,3.29157 4.19817,9.58721 4.81479,12.73237 5.45364,-0.40049 11.64853,5.72812 14.85776,3.57802 1.4475,-2.02297 2.70892,-3.89617 4.50459,-5.73226 2.39295,-3.56394 4.62481,-6.69531 8.69802,-8.49184 0.40257,-3.41975 5.79523,-5.77015 6.31568,-7.52287 3.77807,-2.69434 7.21884,1.265 9.62957,-1.52224 5.17679,0.0312 10.882,-6.55993 14.59958,-7.50775 6.04794,-3.01308 14.87956,-1.16491 23.0891,-4.90344 5.26114,-1.4475 9.54183,-5.14058 12.2693,-7.797308 -4.41291,-5.307598 -2.5981,-4.244113 8.23251,-10.859059 2.81456,-1.090071 5.68042,-2.156763 7.81728,-3.0907 -4.50101,-4.669114 0.34921,-5.967391 0.15549,-7.103954 -1.26743,-11.396431 -0.68765,-8.422355 16.72205,-13.042454 5.17712,-0.927357 3.93403,-1.6678 -3.3657,-1.98987 -8.43565,0.360008 -17.10948,-1.571962 -23.6077,-3.478459 -2.12261,-0.654975 -8.38727,-1.046085 -15.37584,-1.06729 z m 214.82945,4.269071 c -1.02985,-0.02708 -2.64189,0.379789 -4.89703,1.458519 -2.28606,-0.248789 -6.52178,3.400687 -8.12728,3.138153 -1.36148,0.653325 1.3088,0.937131 1.91545,1.003614 3.72762,-1.0677 0.79513,-1.503666 3.83103,-0.58225 2.46707,0.138013 11.7476,2.184457 17.49753,-1.277935 -2.55836,-1.493638 -6.31323,-1.909475 -9.008,-1.991014 0.47313,-0.962542 0.11207,-1.714221 -1.21192,-1.749087 z m 90.80035,2.067412 c -4.55375,0.07953 -9.71237,1.980251 -7.53013,4.60133 4.49798,0.671884 23.09633,5.151213 25.05795,2.782767 -4.24165,-3.256886 -13.09874,-3.007712 -11.70115,-5.323631 -0.5803,-1.500283 -3.09423,-2.108146 -5.82627,-2.060466 z m -109.76925,0.665621 c -0.35996,-0.007 -0.68331,0.0256 -0.94327,0.100719 -3.31659,2.590471 -4.64839,0.140688 -9.99162,0.938754 -2.61543,1.519822 11.12687,2.407212 13.97888,2.5235 1.85056,-1.749304 -1.60673,-1.082797 0.51733,-2.507277 -1.06556,-0.654904 -2.48133,-1.034162 -3.56132,-1.055686 z m -72.56894,1.336993 c -2.53665,0.007 -4.68118,0.313696 -5.87494,1.191143 -15.27663,0.101239 -17.95631,0.903962 -17.80883,2.02227 2.69024,4.873502 1.46701,3.505802 12.83877,8.93193 3.05438,1.481364 4.24555,1.350196 4.65973,-0.517416 2.67444,-5.694662 11.95135,-3.712843 9.21545,-2.120692 -1.71781,2.468146 8.21686,1.362221 9.4228,-0.468795 -3.91218,-1.403751 -17.23283,-3.252887 -8.43992,-4.950886 -0.76525,1.265971 16.17797,-0.640282 12.47795,-2.717981 -3.4312,0.04093 -10.91044,-1.386091 -16.49056,-1.369413 z m 203.31393,3.65911 c -0.53104,-0.0093 -0.93879,0.02783 -1.1712,0.120424 -0.11355,1.611017 -0.45301,3.316877 0.0516,4.741376 1.13892,0 11.85526,-1.104956 12.83877,-1.326554 1.79952,-1.177367 -7.99615,-3.475646 -11.71863,-3.535254 z m 11.46057,5.460231 c -0.82834,-0.007 -1.60547,0.04046 -2.17486,0.162025 -1.96737,0.426143 -3.00253,2.048497 -2.07061,3.15556 -0.0438,0.597265 -7.31674,2.255945 -8.02402,1.699285 0.51776,-0.881777 -9.47415,-0.117454 -10.40626,0.791755 -4.35097,1.391712 -9.08248,1.882302 -13.46078,3.431028 -0.21599,2.312531 -2.88382,-0.244112 -3.57162,1.375192 -0.26719,1.420138 3.48281,0.762928 5.22783,2.11953 -3.43699,1.561579 -11.38071,0.740688 -15.47915,1.359019 2.8958,3.487223 11.63884,6.343516 10.04422,6.47527 -5.70671,-0.160173 -22.21433,-7.369309 -24.48846,-4.776109 1.33824,3.308293 7.29551,0.08132 0.46634,5.986935 3.1084,2.01789 5.28748,5.014761 6.83313,8.627251 1.22873,1.19694 9.02383,-0.29307 5.53938,0.67836 -2.79037,1.88878 -0.82523,3.93087 -0.87964,6.95345 -0.73571,1.44496 -3.61567,3.31876 -4.7626,3.09067 -4.05606,-1.02748 -0.97211,-1.07526 -0.15549,-2.87886 1.91854,-2.74625 2.14231,-5.17033 -0.67352,-6.42571 -2.33771,-1.25718 -4.02552,-4.07227 -4.6076,-6.694124 -5.59272,-4.400338 -3.3929,-6.391868 -3.98611,-7.250865 -1.19295,-1.212663 -8.09657,-1.745268 -6.00576,-1.860189 4.21771,-0.488692 -4.24103,-2.577172 -4.03822,-0.954978 -0.51323,1.978932 -1.80312,6.345944 -2.69207,6.86096 -3.53558,2.741231 1.00718,2.281526 1.03583,4.836326 -0.15921,3.0705 9.36479,4.07421 8.02399,6.28005 -7.27804,-1.42598 -15.48883,-4.73363 -23.03825,-5.22411 -2.25004,0.49961 -7.44495,-3.513854 -8.90536,-2.09171 -0.29095,3.08422 5.61853,3.1102 7.7139,5.01688 1.07212,1.1897 -2.01039,2.82111 -2.89926,1.87991 -1.83206,-2.37751 -4.5942,-0.32546 -9.00811,-0.21183 -0.74782,1.61442 -7.45033,1.60808 -5.69454,-1.0673 -1.61266,-1.24898 -5.25168,1.07735 -7.14449,1.29417 -2.58851,-0.002 -4.4533,2.38187 -6.93766,2.50616 -2.78596,0.31181 -1.08574,5.44008 -8.54144,3.35001 -2.90498,-1.56363 0.0523,-2.51226 2.22557,-3.10573 -3.0409,-3.42195 -13.44326,-4.4571 -9.99161,-2.07208 2.90214,0.85486 0.59317,4.2863 2.84719,5.33867 3.91218,3.27295 -2.72082,3.55645 -3.88195,1.36245 -1.44092,-0.21932 -2.37707,1.72619 -4.14222,2.36029 -1.55575,0.491 -2.50214,1.39185 -3.779,2.41356 5.30506,5.69762 0.24382,2.52494 -7.86924,1.22703 -2.76264,2.64345 2.97043,2.6565 4.08913,3.8674 0.51773,1.32554 -2.64004,1.1442 -5.33214,-0.30557 -2.51274,-0.38517 -3.40061,-2.03016 -4.71073,-3.3037 -1.23963,-5.06562 -2.32864,-3.44126 -4.81485,-5.64897 -0.2067,-0.49186 0.72431,-0.44457 3.93415,0.21294 10.82034,2.21095 13.82224,2.20536 17.03207,-0.0626 4.35146,-2.36112 -3.366,-7.28469 -4.65858,-6.45716 -2.58502,-0.85734 -5.80357,-2.04291 -7.86928,-2.93092 -3.56743,-1.99873 -8.91256,-0.49313 -11.90719,-2.73301 -2.86478,-1.74 -6.69046,-0.68877 -9.5775,-1.03604 1.18631,-0.32643 2.57717,-0.99619 3.15732,-1.72938 -1.91516,-0.30586 -7.76404,-2.656979 -9.31821,-2.671682 -4.66286,0.793671 -5.41004,-1.329012 -7.29978,0 -1.99112,0.950394 -9.78729,0.383755 -9.31945,2.070876 -1.53064,1.279716 -4.81477,1.824666 -4.96978,1.683076 -1.24256,-1.17021 -4.60764,-0.66324 -4.60764,0.69342 0,0.75077 -0.0523,0.79297 -1.91548,0.98973 -3.02832,2.14414 -10.21889,2.30279 -9.62954,4.27144 0.0605,1.39808 -4.19567,0.31021 -4.50344,2.16927 1.36842,0.9398 2.33834,-0.37386 4.14121,-0.7605 2.79393,1.12925 -3.08867,6.71528 -4.6597,7.15051 -2.4788,2.42616 -4.9515,6.35741 -5.12506,6.42573 -4.53169,3.91526 -6.64754,2.95612 -7.45454,3.83155 -2.94375,3.02823 -6.67238,3.93196 -9.52677,5.63389 -1.5531,0.94241 -1.6044,1.09708 -1.65624,4.88724 0.45108,3.2224 0.89977,8.04815 1.03575,8.07294 2.21542,3.41447 6.85075,5.59413 10.35437,3.38127 0.98355,-0.69901 2.74352,-1.76668 3.98601,-2.37762 1.19071,-0.61097 2.22569,-1.50597 2.22569,-1.9771 0.2119,-1.25269 2.00145,2.53401 2.01967,2.94597 0.57665,2.48089 2.3151,5.0539 3.88305,6.731 1.41179,1.36343 1.44552,2.53485 0.36257,3.66024 -3.61624,-0.22437 -4.86218,1.35254 -5.28122,-0.19673 1.76541,-1.88442 -2.98001,-2.30346 -1.08675,-3.60812 0.6212,-0.36765 0.56893,-3.38126 -0.0523,-3.38126 -1.07216,1.01116 -2.90445,2.56151 -4.60774,2.58828 -2.79553,0 -4.71091,5.5149 -2.64004,7.66916 1.09424,1.39935 -0.23009,1.79842 -0.0516,2.97724 1.42075,1.48088 1.44476,4.45122 -1.4502,4.04917 -2.23445,-0.5579 -3.91834,1.25696 -5.95374,0.98393 -2.43319,-0.3573 -4.65984,1.00878 -5.07403,3.10575 -0.51762,2.75459 -3.93422,5.8615 -7.81728,7.13538 -2.27778,0.75078 -2.63971,1.05654 -3.00232,2.73419 -0.52243,3.11788 -3.75298,1.74688 -5.12484,3.982 -2.35332,2.25928 -6.70559,-3.58512 -6.88632,0.0822 1.08726,3.50022 0.98372,3.79559 -1.13892,3.78525 -2.78909,-0.28591 -5.83102,-0.97515 -8.4387,0.2906 -1.54097,1.77507 -0.18296,3.73174 1.19103,3.82109 7.07797,0.40782 10.71455,9.7341 8.54263,16.72924 -0.56953,1.89507 -2.0191,2.92065 -3.46875,2.45985 -6.27159,-1.65528 -11.78213,0.54716 -17.448,-1.44002 -2.17768,-0.72711 -7.75433,2.24848 -6.98852,4.41726 0.25939,0.70937 0.56972,2.8941 0.62149,4.85133 -0.0296,4.50466 -1.15629,7.07312 -3.05441,10.03513 -0.42266,5.16108 2.06604,5.84874 1.2419,9.3194 0.92701,3.85049 7.12809,-1.99413 9.2674,2.96225 2.87338,4.80311 2.1969,1.58551 0.25792,6.22865 -1.76026,4.28724 -2.95118,5.66976 -6.16097,7.2025 -5.36369,2.30106 -5.12484,4.78291 -7.40256,8.00464 -3.89461,9.00629 1.32048,12.39566 -12.5806,17.02544 -1.36686,0.67282 -8.98819,11.07184 -9.05892,12.57097 -3.6592,6.12528 -8.05969,11.98825 -9.68146,18.95076 0.17739,1.96379 2.02973,-0.0525 2.6921,8.47675 0.89314,7.48478 -2.29962,15.41205 -5.43627,19.54676 5.57349,3.92459 0.5354,8.45981 4.14224,12.12061 4.4294,4.51275 5.61273,5.63866 9.31822,9.57873 1.87852,2.03065 4.13967,8.10737 4.40047,10.014 4.75619,3.42645 9.01414,6.69648 12.11453,9.48016 6.26435,5.66978 7.81786,6.15614 12.52859,3.86743 2.74396,-1.32554 4.08969,-1.63624 8.02411,-1.82776 4.34871,-0.21263 6.67895,0.13991 9.11202,1.35664 4.10367,0.44552 7.53254,-3.99786 11.69989,-4.20435 3.57417,-1.82843 7.39169,-2.5833 10.81915,-2.70286 3.98072,-0.42952 7.69763,2.31224 7.92122,6.53997 1.84372,4.54165 7.68305,2.13575 11.75251,1.68311 5.01547,0.51673 6.23225,8.98697 4.24536,13.21833 -0.53888,1.33068 -0.32731,10.68202 -2.64007,9.41919 -1.64411,6.60402 12.55212,16.33087 13.0461,22.50209 3.81815,6.09875 3.48004,16.38833 4.65967,19.35576 1.13892,2.87377 1.65586,5.05292 1.60413,6.61676 -3.64372,5.29796 -3.75297,14.6528 -7.71385,19.67615 -2.27614,9.80658 3.39379,15.76504 6.36823,23.04128 4.38642,7.69456 4.09064,15.04877 5.69556,23.77155 0.99048,7.44006 15.58317,24.08287 10.50909,29.43022 0.76558,6.43537 2.60593,4.99718 5.5394,8.15513 1.13892,1.29446 2.17441,1.29424 3.46871,0.1555 4.03714,-3.4388 12.90642,-2.13015 17.2394,-2.22596 5.59574,-1.54226 11.91929,-4.16809 16.04979,-8.71858 5.92254,-2.26584 7.00846,-14.17103 12.684,-15.09953 5.95391,-9.21547 2.33375,-14.4382 8.54147,-17.02424 8.0886,-5.81829 3.45792,-14.85168 3.36454,-20.97034 0.97765,-2.56233 12.5801,-13.09205 14.34154,-13.81438 4.49982,-1.66442 8.21136,-5.45412 9.88759,-9.92032 0.66023,-4.36481 -0.46014,-8.90833 -0.41434,-13.07446 0.52604,-12.18473 -2.08657,-7.92004 -3.26167,-13.04247 0.0334,-6.70315 -1.30659,-9.54548 -2.95006,-14.15722 0.97044,-9.65789 8.62429,-15.02632 12.21731,-21.29128 2.22623,-4.3804 9.21546,-11.91872 13.51274,-14.59598 2.79568,-1.74494 10.97519,-10.74426 11.02652,-12.10614 3.95261,-7.51438 10.18203,-14.89826 10.35426,-23.30068 2.5141,-2.92469 1.53193,-12.26203 -1.96638,-9.02559 -4.6834,3.40355 -15.89504,2.8663 -20.03581,5.30279 -10.75932,3.84102 -7.90063,-8.12854 -9.68153,-10.01396 -7.96535,-10.20557 -13.62636,-9.64764 -14.90967,-15.14546 -1.62641,-9.288 -8.19629,-10.36459 -8.49062,-18.38071 -2.59618,-10.85785 -5.98101,-13.40336 -10.04429,-21.04833 0.32732,-2.53232 -9.33387,-16.31698 -9.42097,-17.93097 0.62513,-2.02237 3.76943,5.9162 5.95371,6.34352 0.99478,-0.46774 1.75559,-1.52755 2.89811,-1.55349 1.90299,1.32848 3.62907,4.23409 4.86685,6.57018 1.5439,1.84161 5.55628,10.41657 6.36826,10.51634 2.13757,0.88285 4.93554,6.50912 4.55558,8.80196 -1.40634,5.05678 8.98339,11.59954 9.00811,14.04228 0.18073,1.73845 7.11363,9.85922 1.91556,9.1284 3.49326,6.60949 7.2411,7.03022 8.18053,16.18035 1.41988,9.10724 8.48155,0.58065 11.95803,0.51744 12.92273,-0.42302 21.34563,-16.00446 31.99499,-16.051 13.96793,-9.20819 18.41154,-12.85446 18.94767,-24.56342 -4.1652,-5.64877 -14.46598,-7.24542 -14.59963,-14.81907 0,-3.2258 -0.62111,-3.83638 -1.70831,-1.66687 -12.22157,18.21931 -18.26583,9.10965 -17.49879,0.0297 -9.2323,-0.40628 -7.32156,-4.0262 -11.13043,-8.68774 -6.70081,-7.35903 -0.32286,-8.13459 2.89926,-9.03046 3.82266,1.87313 4.52991,8.68227 8.90535,10.27814 7.58149,3.934 7.78519,5.97852 14.3403,5.16161 2.47843,-0.29135 3.80493,-3.45852 5.1771,-1.62057 1.7607,5.18427 4.16835,6.36829 8.38666,6.86095 8.32024,1.13257 17.61604,1.82611 25.26528,0.6934 5.99112,-2.25969 7.02898,6.66149 9.8876,6.81442 7.25209,4.63709 3.4027,3.9345 4.76386,6.24378 0,0.9838 7.14381,7.73081 8.17935,7.70481 8.69136,-3.63607 5.6564,-2.27342 7.76465,5.12686 1.84368,6.04851 2.85657,12.28685 5.54054,17.76957 1.78183,3.34772 3.66783,6.95888 4.55561,10.47035 1.35004,5.65738 6.77261,10.36399 7.09244,16.22688 0,1.3463 2.79512,5.63888 4.1412,6.35868 4.62544,0.60336 3.33196,-5.70408 7.86928,-4.36981 2.20027,6e-4 -1.23297,-0.77431 -0.4132,-3.52594 4.9859,-1.24552 0.98521,-7.74528 2.79504,-10.35667 0.82832,-0.97864 0.87989,-5.20819 0.1555,-9.19009 -1.03549,-5.54546 -0.77684,-7.01569 1.29389,-6.5031 0.7633,-0.13087 5.88223,-4.4395 5.9029,-4.97057 1.23181,-3.63378 5.83185,-5.88734 8.1793,-9.25355 1.59122,-2.71184 4.54195,-3.52291 6.73046,-5.50422 2.12264,-2.09941 0.0991,-3.97017 1.65613,-5.85611 3.16931,-2.0786 5.44025,-0.0895 8.49062,-1.06614 4.62981,-1.36501 5.44383,-1.34762 6.47232,-4.36981 1.20271,0.96768 2.60685,2.98582 2.6401,3.92997 -1.35571,2.65807 8.29779,9.90699 8.12738,10.43773 -0.22786,6.16398 1.45929,0.56675 3.72792,5.59799 1.31996,3.94332 0.74215,6.01121 0.46642,10.16329 3.34873,1.38155 10.33622,-1.22143 10.45714,-4.66039 0.052,-1.62062 3.46914,5.56681 3.93511,8.1715 0.2991,2.15102 6.39795,16.57272 2.27783,15.01611 0.75561,2.63477 6.54478,3.62664 0.51736,3.78525 1.90016,2.34942 1.98872,5.51901 1.39817,8.12376 -0.51765,2.17983 0.15475,6.7056 0.82746,5.98576 2.23112,-1.17319 3.57823,1.69584 5.022,3.60811 1.11106,6.24985 2.94549,0.58661 3.00352,6.66994 -0.34915,3.59043 4.11517,9.53947 4.24537,11.16253 0,0.82845 0.98288,1.82331 3.72691,3.67186 1.40323,4.04589 7.62383,3.86579 7.66186,6.45707 0.48189,1.56576 4.24781,-1.93655 0.62164,-2.14956 0.12123,0.0297 -0.3944,-2.00819 -0.4653,-2.8477 -3.80689,-4.88211 -1.79578,-9.15741 -3.41795,-13.91713 -0.37675,-0.82882 -7.82444,-9.0976 -8.64591,-8.9005 -2.59404,-2.53319 -5.1158,-11.97254 -5.84943,-12.90949 -4.06552,5.90886 -2.40779,-4.2878 -1.70835,-6.92806 1.1499,-2.39751 0.17257,-8.9392 2.48479,-9.22087 2.93294,0.49543 0.50061,3.96577 3.26161,3.94501 2.94806,0.62786 6.7491,3.35671 7.50718,6.70017 0,0.79743 1.86356,2.71912 2.64007,2.71912 -1.0572,0.9645 6.87725,1.19128 5.22903,2.54203 -0.93187,0.56954 -0.72443,6.26004 0.25952,6.26004 3.20739,-0.88722 7.2328,-7.99555 7.8693,-8.41449 3.0845,-0.25791 4.5497,-3.12903 7.1431,-4.0121 2.6807,-3.50399 0.9176,-7.41047 0.5187,-10.7297 -0.288,-2.74528 -3.6183,-11.015 -6.0058,-11.77969 -1.1909,-0.37796 -7.29991,-6.20206 -7.29991,-6.95827 -1.48769,-2.2672 -3.50758,-4.25391 -3.52065,-6.55086 0.0107,-3.45218 7.38625,-10.97752 10.61296,-9.80662 1.0037,0.43745 3.4571,-0.0836 3.0545,1.05106 -0.1788,0.48765 -0.029,1.31551 0.2873,2.15309 -3.0126,0.608 -3.8393,6.04363 -1.4574,7.39593 5.5428,1.9583 5.4072,-2.47546 7.2999,-5.75776 0.5908,-2.11772 -1.0549,-2.19599 -2.7094,-1.98289 -0.07,-1.02837 0.1079,-1.95802 2.2234,-2.32554 1.7879,-2.08555 9.401,-0.83396 8.8007,-4.9347 -0.7229,-2.44287 2.673,3.68061 2.8471,1.08233 1.7349,-2.33605 7.5271,-1.86436 8.4387,-4.15797 0.8651,-2.17037 7.9737,-5.55411 6.7823,-7.943 1.6812,-1.00552 4.3931,-9.65247 4.4525,-10.97147 1.4008,-6.54298 4.238,-8.71977 2.485,-14.25445 -3.0629,3.04056 -1.5786,-1.31454 -3.5209,-5.29243 -1.7264,-2.66539 -4.2487,-3.0886 -5.6943,-5.62813 -2.0709,-3.64003 -4.349,-6.00657 -6.7304,-7.15592 -2.3297,-1.09251 -2.5376,-1.3505 -2.2268,-2.53621 0.2153,-5.00148 8.4188,-6.60887 8.4398,-8.61094 2.0352,-0.97518 -10.877,-4.02192 -10.148,-2.4228 -0.3389,2.56825 -3.1288,2.36281 -3.8311,0.20612 -0.5727,-4.02452 -7.0924,-1.99391 -7.2479,-5.64318 1.5288,-2.54004 5.6074,-2.3572 7.7658,-6.8295 1.2593,-3.5309 5.8781,-1.29767 4.6587,1.34046 -0.5061,1.0674 0.4965,6.32477 0.5695,6.32719 0.2591,0 1.346,-0.96204 2.4848,-2.13224 2.5637,-2.63342 7.0932,-3.35393 10.4064,-1.47589 1.2009,0.2316 0.9793,7.51079 1.5533,6.71525 0.9938,-1.24844 10.6184,3.65356 7.7658,4.14292 -0.8802,0 -0.5696,0.90034 0.9317,2.4899 2.1744,2.39221 2.6407,3.07027 2.3299,3.41711 -1.2459,2.04041 0.5961,3.40524 0.6203,5.06437 0,1.08734 0.2072,1.17536 2.3298,1.05108 2.5375,-0.54049 8.1571,-2.17567 8.2834,-4.94973 0,-2.06597 -3.0543,-7.45095 -5.5393,-9.77579 -2.145,-3.61643 -6.9566,-4.84079 -9.2675,-8.02521 -1.0798,-2.96461 6.0721,-4.19788 4.0902,-8.10862 -3.0709,-9.36054 7.5163,-6.00429 9.7848,-6.48801 1.6567,-0.62134 4.5557,-3.96586 4.5557,-5.2241 3.0602,-4.03037 1.5473,-14.90611 3.0022,-18.64004 0.3321,-2.02613 -2.3615,-8.19566 -3.5718,-9.20636 -1.9154,-1.32552 -3.9348,-6.84586 -2.537,-6.84586 4.2754,2.49813 8.1109,7.02961 10.251,11.43817 1.1031,2.64705 3.8057,4.3023 4.7625,6.89661 1.5797,3.09118 3.1432,5.83914 5.7987,8.33227 -0.2846,-1.76799 -0.9956,-3.80622 0.7244,-3.47962 1.1213,0.0833 3.2351,2.50779 3.3138,1.62057 0,-0.97341 -1.6567,-3.06058 -2.485,-3.06058 -5.0772,-3.24757 -5.5852,-4.52954 -7.6112,-9.4494 1.1262,-2.45041 6.9651,2.11772 6.9899,1.27913 -1.6577,-1.63003 -3.8205,-2.87484 -5.4874,-4.48441 -1.1389,-1.15983 -4.0906,-3.9657 -6.6276,-6.24377 -3.6121,-3.34681 -12.4899,-13.94376 -14.4951,-13.40093 -0.7246,0.27435 -0.5694,0.5131 0.7767,1.33121 2.4714,9.56907 -1.4915,2.93986 -7.9733,-0.41903 -8.3347,-0.3357 -21.1945,0.0439 -17.3434,-5.4892 2.2263,-2.84266 3.0552,-4.43659 2.382,-4.65921 0.4231,-1.74082 3.4631,-10.88686 4.2975,-11.19454 1.7084,-0.64723 9.1115,-0.73078 9.5255,-0.11471 0.1556,0.3003 0.7765,0.54984 1.3461,0.54984 0.5694,0 0.9318,-0.18637 0.7765,-0.40398 -0.1032,-0.22275 1.6572,-0.33185 3.9351,-0.25926 4.9632,1.29589 3.3245,-2.04977 4.4515,-1.7294 5.1403,-0.62467 8.3293,3.43436 9.0081,3.44377 2.6233,-0.15078 15.0983,-1.129 7.3518,-3.16939 -3.6008,-1.118 -1.3916,-8.39272 1.0869,-8.64118 2.8492,-2.77757 9.1719,3.43219 9.6294,3.2354 10.3176,2.90598 4.4539,-6.494 4.5568,-6.53935 3.6968,-1.13347 2.7166,4.32125 5.5394,4.74252 0.197,2.51913 -2.7784,6.06483 -2.227,9.32061 0.47,2.22598 -1.6204,5.15328 -3.3645,5.17783 -1.1644,1.77386 -0.2138,1.44836 1.2939,3.78411 -0.4143,2.17469 2.2782,5.7114 8.2833,10.88926 3.9718,4.49733 0.93,1.4078 9.1628,8.02519 2.5241,1.79317 6.8532,8.51727 8.5428,5.24607 1.5143,-3.30705 -2.9896,-6.00813 1.398,-7.92787 1.1412,-1.23867 -3.627,-2.79228 -2.9512,-4.93935 3.2489,-5.18132 -5.2743,-9.10845 1.6561,-7.4872 0.4661,-0.4867 -1.9155,-2.92532 -2.8992,-2.94603 -3.2075,-0.86045 -3.8679,-5.63748 -7.0925,-4.9347 -2.6859,1.06441 -5.1945,-8.11588 -4.7106,-8.04033 4.7601,-4.05484 20.8053,1.21377 19.6217,-1.2953 -1.6519,-7.99497 15.9356,-8.47493 15.9453,-9.43427 -1.6655,-3.28998 -11.9538,-5.34549 -12.9434,-8.00947 2.461,-5.73262 -1.2078,-3.86274 -2.8473,-6.0842 6.0681,0.47196 13.9354,4.75469 19.7765,5.19289 3.1677,0.64081 10.2111,1.74109 10.5092,1.55347 -6.1435,-5.87817 -1.9273,-4.37549 4.6596,-3.52592 -8.01,-7.79368 -21.4752,-5.1702 -29.2512,-8.61096 -2.7957,-1.36179 -26.0414,-7.16561 -33.6513,-8.39818 -2.5369,-0.41421 -6.6259,-0.83877 -9.059,-0.95267 -10.3144,0.22504 -10.2981,1.55923 -22.78,0.95267 -4.1935,-0.13456 -13.719,-0.17635 -14.4953,-0.0626 -10.0206,-3.02654 -14.6618,-5.464322 -24.3838,-5.079394 -14.2024,0.02712 -26.8846,-4.854705 -40.58908,-6.16638 -12.44285,-2.024253 -11.01193,0.944398 -10.82039,1.55347 7.96361,4.24654 2.82732,2.348158 -3.31235,2.3302 0.0444,1.562573 -13.03165,-0.776484 -12.84064,0 3.03341,6.712244 -7.52588,0.214302 -9.42156,-1.488643 -5.46377,-4.737314 -12.85624,-4.810332 -19.7765,-6.327181 -4.60035,-0.538362 -3.59848,0.312656 -1.55315,2.638104 -11.8432,-0.451652 -11.22116,-2.181344 -27.28363,-1.909994 -3.53633,-1.243255 -6.18453,-2.956199 -7.66194,-5.290075 -0.91304,-4.23322 -11.64244,-5.4155 -14.34148,-5.437068 -8.54747,-0.632652 -11.76521,-3.002329 -20.44864,-3.333829 z M 293.4225,75.448426 c -4.24062,-0.100049 -22.4519,3.549191 -23.00683,5.031951 1.65364,-0.414739 14.9103,3.58245 15.79046,4.386003 2.07049,2.94765 7.71451,0.751909 8.62484,0.598443 3.2305,-0.544692 8.09169,-1.115269 10.80465,-1.262901 6.69656,0.160391 15.87145,-4.446613 4.48381,-3.914898 1.96714,-2.591037 -0.35333,-2.702443 -2.31484,-2.120673 -4.52471,1.217809 -2.05983,3.484078 -5.45136,3.560681 -3.8526,0.0642 -3.79217,-2.418013 -7.63528,-2.863825 -5.25074,0.156495 -0.73288,-1.968827 0.25797,-2.185478 3.0978,-0.955094 -0.57738,-1.233939 -1.55317,-1.229347 z m 474.53632,1.459709 c -1.47014,0.06056 -2.91258,0.443619 -4.06018,1.145998 -3.67437,1.939032 -14.4733,0.305011 -16.67005,2.636957 -0.98095,1.467229 -6.35316,1.633276 -6.16093,3.009709 -2.02442,5.542506 -3.79502,5.874422 -6.78238,11.21085 1.20056,3.339139 17.94367,6.896021 19.05228,4.530717 -0.36109,0.955384 -11.65148,-3.569377 -7.66186,-7.294975 2.19156,-1.496538 3.83793,-6.106554 6.6784,-6.730996 4.38263,-2.648096 8.15881,-3.45219 11.69989,-4.159137 9.06007,-1.786875 10.87177,-2.938127 6.52301,-4.109366 -0.84418,-0.196278 -1.73599,-0.275953 -2.61795,-0.239622 z m 190.22679,2.936733 c -2.15825,0.01336 -3.86892,0.300223 -3.89353,1.315019 0,1.463274 1.81133,2.349953 7.76529,3.72159 4.20584,0.340673 14.65396,-0.05396 15.32388,-2.215576 -2.94192,-2.778586 -6.52614,-1.504625 -11.28588,-2.492245 -1.621,0.08499 -5.13483,-0.347058 -7.90976,-0.328762 z m -689.662,5.37271 c -4.94606,-0.02041 -10.31381,1.385059 -13.49038,3.30486 -3.3978,1.849916 -10.4468,3.599429 -12.91189,6.260089 20.74243,3.389076 20.33259,5.673993 -3.83104,8.527533 3.4763,-3.541767 -16.43064,2.45948 -14.72352,-2.20052 -4.80815,-4.828844 -30.09878,7.76286 -30.10963,2.80132 -5.4463,-5.588381 -33.99533,0.26438 -36.78805,-5.98461 -14.32334,0.101667 -36.73116,1.577451 -48.92431,11.04884 7.30704,7.26596 -5.76372,6.10957 -6.4711,6.26011 -1.754027,0.63022 -16.601673,2.85547 -13.558681,4.12671 1.902938,7.13843 6.705014,4.26928 12.735971,4.3698 -0.454837,2.23559 -11.761536,4.58265 -13.284832,4.33969 -4.94617,0.60625 -10.481259,4.60717 -14.770704,5.69526 -12.272954,11.70473 9.354465,7.60628 -3.333337,12.74809 -2.455201,2.27344 8.286352,-1.29478 7.926062,0.83803 15.841867,-4.47308 -9.324259,7.5791 -17.860862,10.58342 -13.669309,1.7662 -17.233987,2.64662 -20.335604,6.81442 2.505724,0.72755 16.246856,-5.05421 17.038119,-2.70293 6.81805,-1.22456 13.802942,-6.15733 20.319315,-7.50777 1.115771,-1.65906 27.715823,-13.02131 27.454683,-10.05024 3.18786,-0.9864 16.00933,-1.78718 18.88065,-3.15318 5.81094,0.72236 6.8035,0.49375 12.48693,0.12843 7.63892,-0.62213 14.1154,7.38868 10.88747,11.73316 2.08052,4.43255 -3.02409,9.8441 1.60413,10.25698 1.60677,-0.0185 4.88669,9.12537 3.35068,11.76458 2.13524,6.07754 -4.41429,5.80622 -4.4016,6.11561 -3.36652,0.43185 8.06086,9.70144 6.13072,9.56241 -1.57382,-0.11901 -1.7861,0.15102 -3.07521,4.1742 -0.85941,2.6821 -3.82667,8.19143 -5.12612,9.53279 -6.31388,5.38811 -8.38184,13.84885 -12.75111,19.21913 -1.33676,1.44043 -2.55964,8.58738 -2.1331,9.54851 0.74701,6.70017 1.64938,10.92434 1.81247,17.21646 9.64764,5.46471 7.85292,9.46147 9.59267,17.86328 -0.32199,3.72526 1.9763,6.24679 3.65501,8.81708 0.51719,0.2471 -1.15158,5.90416 1.13428,9.76069 5.87917,2.68839 3.18887,4.94664 2.47454,8.63634 3.36041,2.54224 5.62931,7.56336 7.3772,8.55895 4.98704,-1.80681 0.36706,-5.02773 -0.84374,-10.14393 -0.22349,-2.37516 -2.28681,-10.23218 -4.07407,-11.30818 0.19541,-8.42659 -0.1879,-4.47679 -3.33452,-9.38772 -1.34806,-2.25766 -0.2708,-8.8884 1.76505,-8.02521 4.49426,1.17296 3.33461,3.07238 3.76968,6.45716 0.86636,7.917 -2.04372,3.45823 2.44325,8.1866 2.97767,4.71883 5.50585,8.73126 4.80437,11.01863 5.45335,7.01027 11.42788,11.23082 11.43638,20.14642 0.11731,3.69482 -2.37393,4.85091 -0.43524,7.91216 4.1433,4.55049 17.27391,12.7505 21.3403,13.31752 8.63516,5.06404 9.89731,2.87422 16.85623,2.07087 2.10185,0 4.69564,1.67213 6.63182,4.27144 3.22532,4.31836 4.79429,5.54515 7.63653,6.00082 8.74453,2.06736 17.64082,8.58435 18.15644,14.96952 3.14665,1.2355 8.24824,9.42406 8.6043,9.44942 5.50775,1.22205 9.57814,6.48801 12.02209,5.32362 1.16835,-6.31389 4.66448,-7.51259 9.41673,-0.57994 3.27089,5.43329 2.06826,19.10063 -1.6516,21.14627 -3.41872,1.96281 -2.20059,5.80835 -5.14584,6.94311 -4.27392,0.0731 -4.57295,14.07251 -5.61225,14.30043 0.80567,4.55933 0.57844,4.31758 0.53355,7.36332 -3.87535,1.4283 -0.61916,10.77616 1.37733,11.81048 4.16978,3.00424 6.96674,8.70826 9.09033,13.43112 0.81904,2.63926 10.25213,18.4593 10.17353,18.9309 2.28783,12.53404 22.40605,13.97998 25.9211,23.93164 0.83156,7.60508 3.74461,37.48444 2.24771,43.31714 2.04903,12.42284 4.23831,19.52922 2.8472,33.17014 -1.82713,7.81546 2.37923,18.27975 4.0949,26.76858 1.76168,7.57669 3.0937,15.47428 2.68165,20.81559 7.44911,16.03406 17.45403,26.0354 22.97542,31.16985 6.20572,2.05811 8.81894,6.29334 17.37486,6.31816 5.55454,2.43936 7.42134,-1.16209 8.80073,-1.96781 7.09188,-2.3393 -3.76598,-1.7289 -10.33914,-8.02525 -1.96132,-3.67319 -7.80214,-6.97521 -8.07052,-11.08152 4.95525,-4.01056 0.72482,-5.68045 5.04739,-9.52669 5.02692,-5.55703 -6.12894,-6.61133 -7.60506,-9.11329 7.44724,-5.06525 0.10316,-12.41022 7.52288,-15.06692 -2.32983,-7.99136 -6.35622,-0.89474 -6.93776,-8.69921 8.01435,3.78835 12.52197,-1.33639 8.38188,-6.93829 -2.31551,-2.67546 12.72448,1.47972 15.3347,-6.00666 1.51504,-5.03047 -0.79095,-11.92714 -5.27546,-14.49749 -1.38832,-0.37225 -2.76093,-3.55692 -1.08221,-2.04538 10.51995,1.9106 14.56644,6.60043 17.70012,-2.71797 1.73624,-5.64008 7.69273,-10.88865 8.84854,-15.77777 0.60568,-2.7288 2.18432,-5.69527 3.39579,-6.37376 2.76415,-2.72695 -0.61937,-14.85772 0.69905,-14.99974 7.70243,-5.45008 11.00055,-10.23584 20.39676,-10.54783 2.26752,0.26014 6.61977,-4.80986 6.37377,-5.77847 1.42425,-1.29352 4.62228,-16.61016 4.6493,-16.63685 2.83988,-3.0281 -0.71342,-22.40895 2.58793,-22.57035 2.45953,-6.11499 10.1034,-12.86784 12.63199,-18.85221 1.4043,-6.19181 0.55264,-10.64205 -1.76041,-16.2269 -6.0381,-1.16041 -7.96475,-2.28885 -10.92371,-5.13155 -10.71584,-5.35916 -19.58059,-6.54721 -27.17908,-12.6036 -4.07527,0.97626 -10.79976,-3.55037 -15.40176,-4.83516 -4.31065,-2.38172 -8.27125,-10.85474 -8.42845,-16.78239 -0.25198,-3.69152 -12.4216,-12.33826 -19.12478,-10.5 -7.677,0.57396 -8.21382,-4.90633 -10.82523,-8.10866 -1.85695,-2.57592 -9.02621,-3.94299 -7.97204,-5.48337 -2.90053,-2.9396 1.04832,-9.0661 -0.73029,-8.42954 -8.03122,1.7772 -8.6757,-0.49455 -14.35058,2.8476 -1.01555,-2.22041 -13.69714,-0.79932 -13.76602,-2.78512 -3.68683,-4.33459 -5.78283,-7.5138 -7.00486,-6.16154 -1.90134,6.48371 -6.29698,8.02336 -4.54624,-0.60083 -2.33844,-0.0391 -10.96118,6.25954 -13.52787,5.66518 -2.09672,-0.52814 -4.95897,3.69186 -4.49303,6.63302 -0.97372,1.65482 -5.58573,3.60989 -5.24421,5.4522 -4.4062,-2.68384 -7.39049,-6.72319 -12.89676,-3.86862 -7.31674,3.79576 -9.38535,-0.82816 -12.92097,-7.73025 0.15506,-3.30513 2.49255,-15.61576 3.67013,-17.52655 -0.0414,-3.34535 -8.95856,-6.19903 -11.21392,-4.83633 -3.04498,1.15143 -7.82331,-0.0929 -10.11128,0.19217 -0.49994,-8.93619 11.77545,-18.02407 10.77443,-24.36817 -1.1905,-2.15793 -12.93849,-0.54164 -14.22242,2.11836 -5.52598,14.35358 -14.14631,11.06093 -21.15838,9.37141 -2.43601,-1.26541 -6.56296,-12.47002 -6.03582,-16.14896 2.91519,-11.45205 6.39489,-23.57811 13.88393,-28.0906 4.00545,-2.79746 13.49283,-6.2571 17.38993,-2.89395 16.00509,2.03066 10.43108,-8.75784 21.61473,-3.64519 7.74957,7.43643 9.51466,-3.18965 9.73832,8.43503 -0.41417,0.79741 -0.69394,2.00378 -0.61115,2.68206 0.78962,5.31548 2.78229,9.53523 6.07758,11.90905 6.65902,-0.56153 3.12666,-17.10765 2.72339,-18.77001 -1.80209,-6.79626 2.74735,-12.86411 7.81244,-15.46646 2.40372,-1.8186 11.63158,-8.62907 14.42793,-8.78685 7.73448,-7.15896 12.26689,-13.14461 11.55544,-18.49555 -0.15015,-0.92166 -0.0567,-1.80682 0.20727,-1.97253 0.26919,-0.16561 0.48726,0.0573 0.48726,0.50239 0,1.1443 0.32553,1.04069 2.78468,-0.97353 1.19588,-0.98382 2.49011,-2.59363 2.87845,-3.57223 0.62642,-1.6051 0.99432,-1.84383 3.6088,-2.38231 3.60321,-0.73529 6.51213,-1.96747 4.96409,-2.10215 9.57211,-0.36877 6.34958,-5.66445 6.77754,-6.01703 2.07269,-3.56855 5.27879,-5.55325 8.49553,-6.66873 5.67839,0.0657 11.30935,-7.20733 16.82537,-5.95451 -1.97024,2.6888 -9.53823,4.06758 -6.2281,7.57061 7.74356,1.16843 10.73454,-5.64587 19.36785,-6.77754 2.08535,-2.2649 5.98992,-2.80052 6.27404,-4.2726 -2.93444,-1.10251 0.26051,-2.64844 -0.90628,-3.85232 -8.67745,5.03223 -11.80328,2.73887 -15.48401,-0.14463 2.37729,-3.81669 6.52308,-9.82777 1.21643,-9.76975 -4.97443,1.6731 -2.90605,0.32289 -4.53008,-1.36246 4.09244,-3.89121 11.17938,-2.58728 15.15876,-2.57325 14.10635,1.80502 15.35041,-5.13187 21.84259,-5.2241 2.87907,-0.38294 0.39678,1.17053 -0.73035,2.26769 -10.1736,10.96299 -15.5269,14.0465 -6.47104,14.59114 13.19665,0.52812 12.17685,0.4094 11.35894,1.31034 -0.60163,7.97625 6.38099,-0.92365 5.46645,-3.41244 -2.38799,0.31387 -3.54372,-3.13573 -0.77661,-4.59786 1.01972,-1.46338 -0.63289,-1.82376 -0.56371,-2.99345 -4.90422,2.4029 -4.49211,-1.37461 -7.71991,-2.05008 3.8831,-3.51384 3.20628,-1.56572 4.80444,-4.59784 -4.47125,-1.25021 0.94197,-2.45611 2.00915,-6.29577 0.39999,-6.04912 -3.84331,-10.25578 -10.43767,-11.13226 -0.003,-8.45199 -3.62983,-11.8353 -2.61919,-22.44047 0.17961,1.29113 -5.05307,4.32911 -5.66433,4.90229 -1.74878,1.59039 -7.40924,5.91142 -9.46268,4.31887 -4.0572,-2.81039 -2.85238,-7.03685 0.28946,-9.95169 -4.85224,-2.14993 -5.02839,-2.02638 -9.15865,-6.64877 -5.01984,0.59659 -14.56329,-2.35522 -15.27177,2.99342 -9.69963,10.7702 -7.67759,8.6714 -7.03565,16.91058 0,1.27893 -1.93123,5.30694 -3.00805,6.27522 -4.31883,3.09583 -9.01055,4.75727 -14.10757,5.64895 2.02718,6.12166 -8.59764,19.28383 -9.28803,13.86638 -7.11662,-1.76638 5.54793,-12.02571 2.13317,-15.24401 -8.51181,1.48141 -12.08982,-5.46906 -17.74662,-7.26356 -3.33758,-1.69885 -5.48748,-1.46085 -8.80076,-0.79288 -0.38312,0.004 0.20133,-2.69271 1.05557,-4.83629 -0.41823,-2.21087 -5.08079,-1.21684 1.51735,-9.1435 0.19672,-0.004 1.74392,-1.04541 3.43168,-2.314 6.46805,-4.42535 14.59661,-6.75154 20.86934,-10.69221 4.16744,-2.59185 7.35182,0.73593 10.19353,0.66217 5.30667,2.48869 1.03504,1.40325 7.781,-0.0822 5.29489,-4.01448 4.59692,1.84097 10.32405,-0.0464 0.49615,-7.12514 7.49205,-17.65834 11.46659,-19.11154 1.12513,-4.72941 10.32768,-4.40871 6.1815,1.43887 9.3115,-1.53359 2.02419,1.08916 3.10645,3.23655 11.00842,-1.3616 12.32862,-0.20949 7.76589,2.81638 2.03536,4.80974 -20.89538,4.88742 -18.40976,8.26819 9.00209,0.21573 15.21503,-2.33035 15.41698,4.43236 2.20515,3.52417 18.87753,8.65207 18.40968,6.19904 -3.08594,0.67995 -4.92444,-5.1605 -0.98267,-4.44855 3.81917,2.54539 3.15223,0.93389 6.22804,-2.03961 -7.0562,-8.08685 -1.4762,-9.53824 4.47799,-6.42572 4.62578,-1.29113 8.78207,-3.72909 12.52325,-6.58651 -3.14566,-2.93267 -11.22116,-4.95856 -14.10753,-7.84506 12.15685,-8.90052 -15.42901,-11.692644 -11.90734,-15.794093 0,-1.485554 -1.83263,-2.277487 -5.95364,-2.572122 -5.91838,0.281519 -9.5219,0.352363 -16.30791,-0.437536 -3.53591,-1.379955 -13.48613,1.694003 -17.73148,5.48566 -6.62584,4.981952 -4.41043,9.586611 -0.0985,8.011311 -12.78314,18.14134 -12.68826,-2.241753 -13.13434,-6.199055 2.34223,-2.521493 18.21569,-6.995128 17.45701,-7.783391 -2.25999,-0.748852 -4.56252,-0.4462 -6.94314,-0.760501 -1.45141,-0.201472 -7.68185,1.326899 -8.70218,2.216715 -3.47968,1.63823 -3.29463,5.055339 -6.43969,6.343516 -2.99498,0.826756 -6.00877,4.306789 -7.65163,5.209056 -7.20307,2.9227 -11.33598,5.29787 -14.35174,8.38306 -1.08209,1.12877 -1.59976,1.22639 -7.00483,1.30922 -8.14795,-0.27942 -10.11314,-2.14304 -1.32526,-2.91473 1.79988,-1.99943 8.66899,-3.2414 8.96157,-5.40119 -0.0137,-0.54368 -2.18454,-1.72944 -4.77312,-2.604496 -2.6042,-1.96022 8.17939,-9.509831 8.93076,-10.194713 -0.80072,-1.116846 -12.38179,1.508029 -13.05637,2.200521 -5.09179,6.583492 -1.48682,2.409855 -3.28238,0.371568 -4.52582,-1.271 -10.9292,1.498106 -13.68871,-3.317549 -2.10868,-2.168438 -5.70041,-3.046215 -9.54728,-3.061749 z m 60.28331,1.783789 c -7.13058,0.985861 -8.12131,0.347057 -11.60198,1.489747 -0.32171,4.557317 -3.97482,1.072911 -7.08218,2.653185 -1.58311,2.892668 3.3979,2.606006 3.36458,5.062035 3.22229,2.193998 8.69918,0.242444 11.95498,-2.845256 2.1101,-1.860503 3.79786,-4.085924 3.3646,-6.359827 z m 213.6326,28.326993 c -4.58603,0.17634 -11.6666,2.75863 -11.98822,2.06158 -2.5347,2.65523 -3.88729,0.007 -6.21171,-1.3416 -3.05192,-2.00267 -5.49892,1.0058 -7.8185,2.78048 -0.27945,1.25601 10.07203,1.00363 2.74424,2.13915 -2.43337,0.33655 -3.05453,0.62688 -2.69226,1.21201 4.75378,0.45145 7.72729,-0.64754 2.84728,3.30251 0,0.52299 0.62115,0.67364 2.48491,0.56491 4.64804,0.48892 8.54928,2.32545 12.94334,0.85426 3.01449,-1.17271 13.77993,-3.77814 14.08216,-6.7461 -4.27212,-1.92439 -1.99175,-4.79541 -3.72782,-4.49482 -0.67898,-0.28542 -1.60489,-0.37288 -2.66322,-0.33221 z m 117.41603,3.1914 c 1.14956,9.7e-4 2.29766,0.15987 3.33556,0.35651 3.45479,0.98896 -2.25672,3.97887 -4.57513,6.75759 -3.30579,3.98776 -3.78081,6.61495 -3.96762,11.36379 -0.15364,3.85333 2.5955,3.0961 5.07407,4.90345 0.10317,0.3417 1.55289,0.17088 3.98616,-0.48155 3.48096,-0.14621 6.64328,-1.61494 9.62949,-1.84866 5.8283,0.007 4.95128,0.77302 2.84719,3.22035 0,0.64725 -2.5879,0.63206 -7.76523,-0.0464 -6.8864,0.68814 -4.16649,5.03878 -8.38795,2.24682 -1.54132,0.21955 -3.02409,2.42957 -2.74303,3.46457 0.0884,3.63829 -2.12906,-0.19783 -2.17481,9.4657 0.31061,2.63552 -0.56987,4.12675 -2.38194,4.12675 -0.22193,1.17566 -4.08979,4.43131 -4.76268,1.56851 0.93177,-1.52229 -6.41904,-0.81305 -7.76526,0.74545 -2.13396,1.21303 -8.45015,2.60062 -8.54262,0 -2.47117,-2.14738 -8.76633,3.18058 -8.8008,1.34161 4.12282,-4.192 4.42817,-1.06414 4.29631,-5.38498 1.89877,-2.81473 0.98135,0.42307 3.9873,0.43408 1.91546,0 2.32965,-0.18621 2.48493,-1.01983 4.11175,-2.51691 6.05389,-3.37082 6.98844,-2.87888 0.62138,-0.63688 1.86406,-4.32343 1.60522,-4.59785 -2.28563,2.99615 -1.08659,-1.3526 -0.7765,-4.76805 2.40217,-1.46698 10.56764,-5.0317 3.93523,-8.12494 -5.0812,-2.78155 -2.72038,-2.73912 -2.69221,-6.35862 0.84679,-2.56647 4.71288,-6.00282 7.66189,-6.1664 3.35761,-2.11509 4.78135,-6.28729 6.16096,-7.73624 1.04262,-0.42932 2.19297,-0.58463 3.34255,-0.58341 z m -81.59398,25.24164 c -0.47598,-0.004 -1.09613,0.41348 -1.71298,1.45852 -1.52913,2.98248 -4.86871,0.69255 -6.367,2.83258 -1.36382,3.10187 -3.58688,2.31761 -4.60775,3.13814 0.10687,1.82931 -1.21563,2.98551 -1.76033,4.70669 5.25379,0.70386 2.8721,0.64412 1.03471,2.99807 2.33113,0.34561 4.17767,4.61624 5.07408,4.90344 4.70627,-1.73417 3.25324,0.0711 4.65974,1.63104 1.62859,2.77787 -0.22193,3.86811 -2.58912,3.57687 -2.97524,0.0769 -0.27759,0.21341 -3.26161,2.97724 7.29135,0.62781 -6.01174,4.38086 1.24305,4.86759 2.48503,0.12937 4.34846,1.24785 2.07065,1.24785 -2.0121,1.11335 -5.66499,3.48929 -6.93776,5.20905 1.43566,0.23822 7.69152,-1.02105 8.17936,-1.58472 2.34657,-0.74607 7.55677,-1.46425 10.30294,-1.32541 2.32969,0.12428 6.62582,-1.34081 6.62582,-2.26766 -3.94934,-2.33556 2.50604,-3.19589 1.08797,-6.16157 -5.75104,-4.07693 -3.66157,1.6693 -5.43632,-5.51929 -0.90445,-2.19128 -3.67482,-2.63855 -4.29742,-4.80508 -0.466,-1.97798 -1.81177,-3.70202 -2.84726,-3.72276 -1.33457,-1.23981 0.91503,-4.37535 1.96755,-5.40582 1.24262,-1.28413 0.36258,-1.85905 -2.89926,-1.85905 -0.94467,-0.11217 -4.00451,0.0468 -3.10647,-1.03603 5.13613,-2.04027 5.00424,-5.84724 3.57638,-5.85962 z m -16.18761,16.97345 c -1.68546,-0.0316 -3.27281,0.42763 -4.20948,1.572 -0.10984,4.17348 -4.98597,1.58859 -6.00588,3.3662 0.0976,1.82834 -0.52096,3.49479 0.77673,3.83622 3.61348,1.22185 -5.5658,6.32236 -2.27785,6.51943 1.02877,2.19561 5.48,1.04998 8.1286,-0.32181 2.59554,-1.21875 5.56445,-1.04848 6.21296,-3.24121 0.19929,-4.48729 3.63333,-8.55109 2.17345,-10.35551 -1.32964,-0.82106 -3.11305,-1.34352 -4.79845,-1.37519 z M 283.1081,189.24317 c 5.04369,-0.0779 4.30192,3.85484 3.79165,8.79049 -1.95122,0.75483 -2.869,-1.34668 -6.3737,0.3207 -3.44197,-5.84976 -10.56831,-0.79792 -17.5036,-1.37172 8.12252,-6.50612 8.97544,-4.96098 16.64946,-7.26474 1.36906,-0.30862 2.50235,-0.46019 3.43633,-0.47461 z m 437.80751,6.87969 c -1.05609,1.11651 -3.99609,1.41584 -4.40171,2.33021 1.15017,1.73979 1.27675,1.57995 0.31136,3.77021 -0.36257,1.30484 0.75111,1.18217 -1.77091,1.71668 1.62038,0.43929 6.44215,4.88384 9.12301,7.03927 1.55303,1.28411 3.88183,2.83742 5.22794,3.44837 1.70845,0.79219 2.69243,1.64609 3.31361,2.99234 1.13904,2.24202 0.82895,3.13749 -1.24188,4.36979 -1.13902,0.66278 -2.9,0.97946 -6.4723,1.09855 -2.99039,0.30371 -13.54179,-2.41113 -14.65038,-3.754 -0.77662,-0.932 -1.19092,-0.98412 -5.02198,-0.63206 -3.1581,0.28998 -4.81526,0.74546 -6.62704,1.79653 -3.17427,2.75835 -8.8999,2.78361 -12.68398,0.80798 -1.34607,-0.70937 -3.26131,-4.75812 -2.63996,-5.42088 1.32444,-2.23541 3.40922,-8.57589 4.24532,-8.99419 2.34954,-1.32736 2.70951,-7.83359 5.84946,-7.88075 0.77669,0 1.29517,0.30082 1.29517,0.76167 2.02354,1.94888 5.30768,0.87017 6.93772,1.87411 -0.85454,0.49499 -3.60424,2.43903 -3.00347,2.60448 5.01541,0.8325 3.27396,3.78229 5.07404,3.99707 2.53669,-0.4086 4.73088,-2.48304 7.35062,-2.50615 3.25815,-0.51464 -0.24567,-1.55251 -1.24183,-1.95747 -1.0687,-0.1809 -2.08107,-1.70133 -2.64007,-2.28272 1.19318,-1.26846 2.63594,-2.93014 4.34831,-3.18446 2.30578,-0.44305 4.61115,-1.33016 6.78234,-1.63677 l 2.53712,-0.35766 z m 47.38047,1.29997 c 2.81053,-0.023 4.24871,7.45456 2.57758,6.8253 -2.92869,-0.5917 -6.57749,-1.33018 -6.47109,2.36028 -0.86658,0.95732 -3.08659,0.13894 -2.32983,1.52224 1.33983,1.51876 4.63784,3.04317 4.65969,5.20905 7.73449,4.73992 5.07701,3.0465 5.53933,7.21883 2.41145,1.48129 1.67973,-0.75286 3.38536,-1.32542 2.13942,-0.0204 4.77608,4.02795 5.02201,4.69048 -3.52886,2.09079 -1.71902,0.28615 -3.62383,0.25929 -2.29769,-0.27963 -2.07436,-0.49874 -2.76391,0.67837 0.89826,4.7427 5.15357,7.35057 5.79753,11.23079 1.48521,6.25285 0.27686,5.19712 -5.33214,6.47167 -3.44462,-0.11086 -11.99612,-4.6553 -12.52866,-7.75077 1.07742,-6.00945 0.13545,-5.22798 3.98707,-8.34617 -2.46031,-2.41964 -5.36895,-4.57854 -7.50652,-6.86097 -4.24532,-4.61346 -4.91902,-5.59745 -4.91902,-7.13538 0,-1.70351 -1.50131,-3.81047 -3.26153,-4.53537 3.51755,-7.11362 14.95262,-10.0865 17.18867,-10.40327 0.1989,-0.0727 0.39255,-0.1074 0.57977,-0.10876 z m -484.72796,3.55718 c -5.94648,3.67855 -8.54143,12.63867 -12.46151,16.7915 -2.51096,2.51644 -3.91373,2.90507 -4.00691,1.10321 1.65162,-8.74517 7.22119,-17.52416 16.46867,-17.89471 z m 13.89479,0.42018 c 0.72479,-0.0115 1.37208,0.543 1.75001,1.61484 1.24254,3.5779 -1.0659,5.60262 -2.88305,2.52695 -3.3005,-1.86224 -4.57412,6.02644 -6.67964,7.47693 -2.11383,-2.12199 3.29103,-8.38608 -5.64808,-1.78148 4.28183,-5.91785 5.17009,-4.16628 2.31485,-9.20639 4.79568,-0.63712 8.83097,-0.53444 11.14557,-0.6309 z m 334.05896,1.12285 c 0.41437,-0.002 0.60267,0.0918 0.21301,0.34721 1.6631,8.31536 14.69752,11.84316 21.58868,16.9106 -0.84341,3.20463 1.55088,10.55862 2.38067,10.61482 2.34953,0.56933 2.11529,2.99465 1.55336,4.31775 -0.0111,4.594 3.60295,1.44607 4.65967,5.86191 3.56916,1.21865 4.5879,0.89664 5.43512,4.31776 2.65458,-5.00427 -1.01802,-5.49396 1.1911,-5.17783 -0.19372,-1.58847 3.41315,-3.77889 5.53922,-0.93761 2.8441,-2.54514 -11.11956,-8.81105 -8.69676,-12.62356 1.49819,0.34768 5.32345,3.24818 5.64238,-0.11331 -2.71374,-3.83247 8.85214,-1.85391 6.93718,0.0822 -2.90179,2.41832 -1.87501,4.87839 -0.1555,5.62922 5.93195,0.16701 -3.62261,5.76435 3.51958,6.40941 3.04681,0.99083 0.30023,3.46203 0.46649,4.61406 4.14534,-1.08626 2.72342,1.90584 3.20953,2.63461 2.49368,1.0422 0.74237,-3.40473 2.7442,-2.90897 2.4119,1.57922 8.033,3.97384 7.60988,-0.0684 -0.20708,-1.51709 3.98674,-0.18637 6.3683,2.02455 0.55591,0.51159 1.4649,0.76642 2.4629,0.80568 -0.38653,0.0996 -0.77441,0.18213 -1.16317,0.21638 -1.44958,0 -1.0872,1.59967 0.56944,2.44366 2.59956,1.14538 2.87686,-0.53216 5.12608,-1.40876 0.25419,-1.16341 1.80831,-2.93179 1.70834,-3.4797 -0.4559,0.073 -0.91622,0.2095 -1.3784,0.36697 1.0284,-1.24035 1.89847,-1.35588 3.33905,-0.46649 3.34844,-0.37185 1.2955,-0.49851 2.53714,4.86758 0.62115,0.6731 1.03561,4.14257 0.62146,4.66037 -0.67304,0.75078 -2.53733,6.48255 -3.1586,9.57874 -0.37685,4.70607 -6.36829,6.16518 -8.95611,4.17882 -1.91547,-1.68282 -7.61114,-1.07702 -9.88883,1.0511 -4.79449,2.30244 -10.25941,-3.16923 -15.47919,-2.33019 -3.64149,-2.19924 -8.27058,-2.92076 -12.0106,-5.55053 -0.77658,-1.23752 -5.69572,-0.0885 -8.02514,1.87407 0.52434,6.04287 3.29184,11.53428 -7.04053,8.0615 -2.1227,-1.51715 -5.38464,-2.68673 -7.55913,-2.68673 -7.00665,-7.57969 -10.34224,-4.92484 -17.39483,-8.29963 -6.09987,0.66228 -9.6047,-6.50129 -2.95143,-6.89239 1.19816,0.0936 -0.68587,-4.94612 -0.72447,-4.97058 2.26218,-5.90818 -1.62806,-4.44617 -1.91556,-5.58181 -0.41409,-1.61543 -2.53598,-1.92638 -4.86563,-0.70961 -4.0935,-2.05109 -11.86614,3.38296 -14.49623,1.71432 -1.39781,-0.85953 -2.84774,-0.79742 -9.8369,0.37273 -5.85014,0.97862 -9.31819,2.18428 -9.31819,3.23541 0,0.29515 -0.36256,0.40476 -0.7766,0.24423 -3.22753,-0.10666 -6.09865,5.67276 -9.73289,2.81173 -2.52536,-0.51608 -5.65121,0.8948 -7.61109,-0.50239 -4.16647,-4.24328 2.7625,-5.70445 5.95364,-5.74272 4.83066,1.68883 5.14817,-2.82652 8.07656,-3.46342 0.95767,-0.52689 6.02065,-5.69495 5.02193,-6.53451 -3.25384,-2.67651 4.03566,-9.51286 5.22916,-9.6936 5.78315,-2.39336 6.32352,-3.60519 6.26369,-7.56942 0,-2.5423 5.48779,-3.45363 8.64599,-1.44466 3.72118,1.70289 8.01074,-3.15097 11.23512,-5.14191 8.25667,-0.34817 5.25324,5.99332 5.53929,7.18133 3.63957,-1.29838 6.78234,6.16034 11.49311,6.70016 3.05868,1.18347 8.55292,5.58978 9.42224,8.02519 1.91215,5.06817 -5.40213,5.76352 -8.75005,5.51464 -3.05438,-0.26923 -3.93397,0.0115 -3.93397,1.23279 1.55544,0.95844 6.8471,4.83822 8.69802,5.30741 3.59239,0.13113 0.29502,-6.45292 3.26156,-5.55168 2.50926,-0.44552 6.81559,-5.92218 4.34839,-7.53797 -1.99136,-1.97677 1.70266,-3.78906 4.29623,-1.1969 0.77657,0.7663 0.88131,0.74623 1.34726,-0.27903 -1.21901,-5.87432 -8.04636,-4.89559 -8.33589,-8.89568 -7.17342,0.73277 -7.66431,-6.23529 -11.64798,-8.68892 -2.54915,-1.68798 -2.73545,-6.491 -0.77768,-7.23273 0.31655,-0.25056 1.63476,-0.52481 2.32512,-0.52899 z m 453.67543,0.43061 c -4.4468,3.20451 4.541,2.92415 3.2615,7.99436 -0.08,5.48447 -5.0465,2.0404 -2.3807,7.16623 0.3105,-0.98375 2.5369,0.6985 2.8993,2.21557 0.7129,1.24827 1.6886,1.22772 2.3275,0.70495 -0.1321,4.58386 5.2042,8.28272 2.8495,12.01786 -4.482,8.08323 -5.1558,1.33804 -6.523,2.26769 -1.7857,2.31881 3.5582,2.20921 -0.5186,4.98218 -1.1559,1.20428 0.7087,2.16969 0.1039,3.07451 -1.5304,0.472 -3.031,-0.36158 -4.6077,0.0164 -1.2731,0.64885 -6.7249,0.041 -6.7822,1.18074 -2.637,2.59066 -3.6456,4.50428 -5.2801,7.10396 -1.9673,1.55783 -3.2067,2.43356 -1.6574,4.11053 2.4646,1.64482 3.6272,3.36445 4.6076,6.77873 0.9912,1.31043 2.5511,2.04404 3.5208,1.03489 1.6878,-2.97015 1.151,-5.03521 0.8289,-8.57406 -0.2962,-2.64968 5.6781,4.22561 4.5033,1.03489 -0.018,-5.81162 4.5274,1.04286 4.0382,-5.13031 0.2263,-2.79323 2.6052,2.05514 4.1424,2.39734 2.195,-2.53081 2.5081,-3.65812 5.7465,-5.00184 3.8557,0.3393 1.4116,-4.38516 3.1574,-1.14946 3.0342,3.20937 0.486,-3.91564 3.5208,-0.8913 2.4569,1.64234 2.7026,-3.45998 1.8633,-4.43229 -1.8396,-2.56178 -0.7093,-5.55823 -2.5879,-7.76587 -1.888,-2.22225 -0.2635,-1.87914 1.0346,-2.55822 -0.4567,-6.52605 -6.0654,-8.95549 -7.7652,-13.33261 -0.6066,-0.54157 -1.1052,-0.84754 -1.5312,-1.00593 0.6729,0.002 1.2932,0.0678 1.6864,0.22798 8.6285,3.78409 0.2418,-2.40205 6.213,-2.57324 1.7601,-0.0163 3.4685,-1.0094 3.4685,-1.97253 -2.3913,-1.33579 -1.8258,-3.33146 0,-4.62912 -1.3252,-1.64059 -2.2291,-0.0185 -2.3817,0.95267 -0.6806,0.31581 -4.0053,0.53977 -6.5751,-0.38778 -4.3336,-0.0352 -7.1813,-5.43787 -11.1831,-5.8561 z m -775.07637,3.17405 c 1.8379,0 1.11311,1.45549 -1.24765,2.49108 -2.13908,-0.0403 -14.18677,1.90809 -8.71857,-0.77669 2.89514,-0.50789 7.88376,-1.69028 9.96622,-1.71434 z m 307.20752,4.37094 c -0.89777,1.17772 -2.77122,1.48638 -3.41649,2.78047 -0.48689,2.94768 2.86937,4.78084 0.93158,6.06787 -1.23405,1.07017 -4.12958,-0.80428 -2.07055,2.57324 1.22306,2.07115 -1.09319,5.46005 0.62046,6.86095 1.86524,1.25361 1.86598,-0.72665 3.36566,-0.76164 1.03542,0.40387 1.34588,-0.52808 1.50116,-4.98101 0.10315,-2.95656 -4.1e-4,-3.64988 -0.82876,-4.24018 -1.36808,-1.89218 0.18926,-3.97561 0.20708,-6.41063 0,-1.36177 -0.10279,-1.90467 -0.30987,-1.88913 z m -318.23944,0.85424 c -2.71888,1.91433 -12.81942,7.32703 -16.01836,5.61766 -0.76305,-0.84597 2.48484,-1.72182 5.04743,-3.02933 5.55304,-1.65679 5.92145,-1.53902 10.09616,-2.42279 0.45557,-0.10347 0.74039,-0.16563 0.87501,-0.16563 z m 793.63409,5.90825 c -0.4825,0.33204 -0.7486,1.02447 -0.9339,1.73748 -0.1694,-0.32034 -0.4647,-0.6158 -0.9423,-0.83348 -0.8654,-0.36279 0.3847,-0.75169 1.8762,-0.90407 z m -421.8912,26.3684 c -0.80145,0.0412 -1.33279,0.26806 -1.39827,0.78368 0.12507,2.20276 11.76225,3.21637 10.61368,1.0673 -1.9762,-0.42671 -6.8114,-1.97435 -9.21541,-1.85098 z m 377.7817,46.38009 c -1.0841,-0.0689 -2.4743,1.30272 -3.3496,3.62433 -2.1773,6.708 0.6253,6.65663 2.1227,10.8119 1.193,1.59994 1.5597,-2.5477 1.8126,-3.24238 0.4141,-1.17536 0.828,-3.95547 0.9316,-6.17668 0.3454,-3.43892 -0.4332,-4.94804 -1.5173,-5.01688 z m -784.44596,12.6459 c -0.91632,0.004 -1.73938,0.0831 -2.37611,0.2593 -0.85418,0.23817 -2.6406,0.70465 -3.98148,1.03603 -3.0251,0.63846 -7.85293,4.7496 -5.40043,5.25996 9.04559,-2.35235 8.28933,-1.38234 14.81721,-1.14949 6.01412,1.65727 10.6155,5.04532 11.17705,9.12417 -0.33151,0.87505 10.58276,0.64208 12.86593,-0.27433 l 1.53702,-0.61119 c -2.09547,-1.09799 -6.76905,-4.5465 -7.87829,-4.88838 -2.18994,-0.65757 -5.27659,-3.27209 -5.27659,-4.46822 0,-0.33135 -0.14458,-0.46543 -0.3207,-0.28939 -3.98504,0.50284 -9.03709,-3.92458 -15.16296,-3.99823 z m -303.70755,4.78073 c -0.907451,0.12658 -1.892473,0.56819 -1.329887,1.26173 1.681342,1.85785 2.582811,-1.28931 1.329887,-1.26173 z m -2.934011,0.95619 c -0.666148,0.41707 -0.519746,0.99086 -0.291651,1.55805 0.602355,-0.54038 0.538818,-1.13215 0.291651,-1.55805 z m 8.027624,1.35549 c -0.622619,0.0642 -1.329525,0.75356 -1.09836,1.45508 0.451908,1.1741 1.916643,1.03391 1.916643,-0.18165 0.09938,-0.99531 -0.333994,-1.32331 -0.818283,-1.27331 z m 3.136573,2.42976 c -0.554538,-0.0185 -1.005764,0.0578 -1.180588,0.24072 0.578598,1.81398 3.060726,3.23482 4.332152,2.14498 1.109897,-1.42331 -1.488017,-2.33023 -3.151631,-2.38571 z m 4.174714,4.25173 c -2.250986,0.65515 -2.23897,8.05905 -0.503476,5.47063 1.233636,-1.01711 2.444795,-1.41292 3.942136,-2.04771 -0.902205,-1.54949 -1.987337,-3.21607 -3.43866,-3.42292 z m 324.76193,0.65405 c -0.7558,9.8e-4 -1.34062,0.0626 -1.64812,0.20038 -1.85347,0.83879 -1.96703,1.65184 -0.24298,1.65184 5.27302,7.8112 -4.57953,2.59362 -5.75689,4.70668 1.25949,4.70933 8.61033,0.93787 10.48362,3.22034 l 1.06713,1.43888 c 2.96563,-4.66576 6.18208,-3.98286 11.13048,-2.6346 2.97073,-3.7953 -3.28377,-5.4666 -4.01276,-6.41062 -1.24205,-1.03985 -7.74591,-2.17671 -11.021,-2.17278 z m 755.00718,2.58372 c -1.281,0.0373 -2.4302,0.51447 -2.7916,1.66686 -0.75,1.47873 1.3384,10.77383 -0.054,8.93196 -1.6565,-2.05045 -1.8633,-0.34765 -0.5172,3.81535 1.4477,2.60373 1.1677,4.62856 1.8633,6.66871 -0.06,1.80267 2.0102,3.42578 3.1065,5.5355 1.1391,2.17991 1.9148,2.59937 2.7431,1.45508 0.88,-1.15463 0.4667,-3.33481 -0.8275,-4.46355 2.8006,-2.6692 7.741,4.01097 7.7653,4.89884 0,1.42908 0.1558,1.92038 0.4664,1.43883 1.5165,-1.02968 4.2893,2.20771 2.8472,-0.64125 -0.9309,-1.6023 0.1227,-2.27333 0.4143,-3.66141 -0.9355,-2.03224 -0.5031,-1.58026 0.3098,-2.94605 0.5696,-0.3417 0.6212,-0.69395 0.1555,-1.55348 -0.7247,-1.27892 -1.6041,-1.44992 -1.6041,-0.30556 -1.527,1.31778 -4.9216,-1.83294 -6.9371,-1.59979 -3.0266,0.1926 -1.9755,-1.6862 0.2069,-1.65183 0,-0.5178 -1.812,-1.65134 -2.692,-1.66688 -1.7798,-0.56566 -1.4305,-4.11047 0.1028,-4.15796 2.9633,-3.28301 -0.062,-6.26252 -0.1028,-9.38229 0.1793,-1.28436 -2.3211,-2.44317 -4.456,-2.38108 z m -731.79476,4.00172 c -1.41874,0.0257 -2.67362,0.46973 -2.80786,1.56272 0.64728,2.2065 8.94826,1.45658 6.60039,-0.61585 -0.79166,-0.57903 -2.37404,-0.97243 -3.79278,-0.94687 z m -43.4882,0.17932 c -2.13969,-0.0422 -3.68996,0.58459 -1.45024,2.17508 3.21026,2.68309 3.33352,0.70409 5.82401,0.67835 2.10241,-1.63883 -1.6228,-2.79907 -4.37381,-2.85336 z m 792.66686,26.24091 c -1.0501,-0.0598 -1.9407,0.24425 -1.9513,0.98971 4.661,9.08064 -0.324,6.02605 5.5395,12.03842 0.8595,3.52775 -0.3114,3.168 -2.434,1.91116 -0.444,1.77667 -1.3601,5.46465 -3.1055,3.50971 -1.4253,-1.44441 -2.8197,-0.61726 -3.625,0.87514 -2.6851,1.86915 -4.0696,2.64278 -3.7267,5.85607 2.6414,-0.14845 4.1158,-0.86723 4.5034,-1.42378 1.8914,0.14659 1.7628,-2.14383 2.7963,-1.58477 1.9311,2.16577 0.3132,5.36465 2.3809,7.06832 2.2274,0.912 5.1009,4.40311 5.229,2.73886 1.1612,-3.05611 -0.8856,-6.16099 0.311,-6.45595 1.3396,0.21857 1.0021,1.6828 1.7084,2.6508 2.9939,0.73355 0.4461,-11.92538 -0.8809,-13.43116 -0.3107,0.17553 -0.3621,-0.50297 -0.1028,-1.64726 -2.6763,-3.83559 -3.2461,-3.18003 -3.4178,-10.1276 0.7156,-1.75911 -1.4744,-2.8687 -3.2245,-2.96799 z m -10.9024,3.22728 c -0.156,1.17063 0.6035,2.97027 0.5172,4.4161 5.3955,3.32055 0.7106,3.45333 2.3299,6.26012 0.5803,0.93071 1.6417,1.05586 2.1749,1.81268 0.9928,-2.97254 3.5168,-1.33597 5.6942,-2.11833 0.6475,-3.8927 -1.6905,-7.10941 -4.8147,-6.42573 -1.5858,-0.48489 0.033,-2.57009 -1.5532,-2.58829 -1.6339,-0.0741 -2.8286,-1.08997 -4.3483,-1.35666 z m -8.6461,2.01884 c -1.9291,1.01605 -1.4202,3.35994 -2.692,5.16272 -0.2194,3.39159 -3.9154,3.99394 -5.5395,7.03688 -0.7646,0.84297 -0.2854,3.4467 0.5175,2.05466 2.4536,-1.8121 5.6605,-8.59764 8.4386,-9.28374 1.3978,-0.26904 1.6044,-1.30424 0.3103,-1.63563 -1.513,-1.0398 -0.8035,-2.24747 -0.1081,-2.80943 -0.1438,-0.0179 -0.4157,-0.13754 -0.927,-0.52553 z m 0.9271,0.52549 c 0.2475,0.0249 0.1084,-0.26549 0.1084,-0.0904 -0.039,0.0249 -0.071,0.0611 -0.1084,0.0904 z m -156.30886,6.72317 c -1.77569,2.48469 -0.24679,2.62482 -1.50116,3.43328 1.4852,2.24569 0.43597,5.68148 0.82876,8.07181 0.66122,3.64938 1.15988,7.51739 5.12506,5.56672 2.69207,-1.35142 3.36443,-2.22659 3.36443,-4.43232 0,-2.10736 -2.07054,-7.05195 -3.41665,-8.17028 -2.1405,-1.99926 -2.20061,-4.19419 -4.40044,-4.46933 z m 147.41676,11.6104 c -0.9599,0.0591 -2.0458,2.0716 -3.5461,3.77831 -3.4937,6.11631 -6.8555,7.05925 -11.2858,12.42646 -7.6504,1.47477 -10.2636,11.12869 -13.7708,7.55554 -0.4142,-1.14946 -1.9157,-0.22785 -2.8994,1.81167 -0.88,1.72421 -0.8282,3.60899 0,8.07779 3.4407,7.43515 2.7768,2.03269 3.9862,10.0973 11.7772,1.41818 3.8173,6.54599 17.3434,6.16042 0.039,-0.0371 7.1529,-0.13137 7.1958,-0.24307 1.0596,-3.99613 0.4948,-9.15687 3.0035,-11.58266 5.0351,-2.68825 0.4899,-9.26681 5.4872,-9.03045 3.6893,-0.75859 -7.9104,-13.77326 -0.4663,-15.72578 4.2902,-5.50494 -3.048,-7.67096 -2.8995,-8.85334 -0.7315,-3.38216 -1.4013,-4.51872 -2.1481,-4.47288 z m -85.86161,7.00242 c -0.70941,0.0389 -1.04393,0.64483 -0.67136,2.41002 3.93284,6.44813 9.41249,10.18324 14.13421,15.96883 -0.25904,1.07705 1.75966,6.3218 2.58799,6.60164 1.44959,0.49705 5.28078,7.36746 5.59131,9.96687 2.24547,4.7986 6.49347,9.16279 9.99227,12.635 4.5559,4.49949 4.65889,4.56147 6.26361,3.99706 6.47168,-0.88108 0.26469,3.66754 0.20715,3.98087 0.978,1.57074 4.63957,0.30506 4.71165,2.55813 3.85858,2.96786 11.18538,1.65391 14.80698,3.39635 1.7762,1.41781 11.1807,1.4348 11.8553,2.04085 3.1687,0.45814 8.354,0.99186 8.8008,0.92141 2.1326,1.07799 4.3294,1.95896 6.575,1.94129 5.3498,-3.3871 15.8122,-0.39312 20.8633,-1.66692 2.6591,-1.69784 8.8412,-0.2954 10.7684,-1.91 0.7765,-0.79732 -0.5692,-0.95841 -5.3322,-0.66331 -5.6345,1.33775 -14.4836,0.25011 -17.2914,1.11817 -0.019,-1.69769 -3.3398,-0.39571 -4.5555,-1.43885 -6.6729,3.16044 -13.7201,-0.81943 -18.2757,-2.10792 -7.3965,-0.94207 2.5976,-2.23229 2.485,-3.05481 -0.1554,-0.3314 -1.6557,-0.49149 -3.8819,-0.41906 -12.2162,-3.22522 -9.6246,0.0642 -11.9592,-0.18147 -5.0784,1.58163 -7.8815,-4.73336 -12.4247,-4.02829 -5.88773,2.35748 -3.70204,-3.95141 -3.46866,-7.13541 0.25894,-5.28658 0.62086,-6.33199 1.86336,-5.66395 6.0172,0.80401 -0.1648,-2.94408 -0.77671,-5.8561 -3.77372,-1.34971 -3.93065,0.27684 -1.86336,2.20053 -2.71662,1.14891 -5.90597,-4.85628 -8.02514,-6.42567 -1.85459,-1.53905 1.8776,-3.75717 0.0527,-5.45219 -0.33988,-2.85161 -2.85765,-2.11334 -4.45262,-4.47857 -0.94972,-0.0486 -3.77753,-3.21465 -3.88305,-3.23658 -4.6899,-1.46398 -8.58019,-5.29103 -11.54524,-8.22228 -2.72442,-2.15359 -3.45116,-5.93699 -7.29859,-5.95456 -1.77747,0.0762 -4.49874,-1.91465 -5.85298,-1.84049 z m 117.78471,17.57978 c -0.036,-0.002 -0.071,-9.8e-4 -0.1094,0.007 -4.7642,3.61909 -7.1427,5.51818 -14.0303,2.49112 -2.2932,-2.1366 -2.7275,0.84549 -4.1411,1.27911 -4.3553,0.75928 -3.8951,15.39933 -6.7823,15.80803 -1.6374,5.63203 2.3601,3.07512 2.537,6.16638 0.3114,2.45856 -0.9164,4.77511 -0.7245,7.15048 1.8175,1.41412 4.2222,-0.0605 4.2963,-1.79648 0.1031,-8.09294 0.4141,-10.49577 1.3459,-10.79084 1.3981,-0.44006 1.7087,0.14067 0.9841,1.9737 4.9113,6.76184 3.885,8.60669 5.6432,10.54652 2.6768,1.83363 3.2803,-3.26134 3.3125,-5.30743 -1.3911,-1.52397 -6.1228,-10.47338 -5.3842,-11.35469 1.2231,-1.04428 6.6747,-3.99998 6.6796,-4.35472 0,-1.39294 -1.2944,-1.85872 -2.8992,-1.01988 -3.7423,1.37083 -8.8063,7.16559 -10.3543,-2.26302 0.5175,-2.62515 0.9829,-2.76439 7.5578,-2.31402 5.017,-0.0464 14.7555,0.61395 12.6333,-5.47299 -0.1807,-0.46212 -0.3237,-0.72598 -0.5637,-0.74658 z m 29.6061,9.22815 c -3.7428,3.45973 -7.5022,1.80793 -8.5414,2.37648 1.3839,2.83724 8.5426,6.75094 10.5091,6.6222 4.5276,3.28759 -4.5882,1.90707 -4.815,2.45397 -0.5438,1.50995 7.8863,8.26824 6.3679,5.71608 -1.0317,-1.94084 1.6792,-1.12325 2.1749,-0.89016 1.0354,0.49709 2.3294,1.2691 2.8471,1.71428 0.5178,0.4454 1.6564,0.87461 2.485,0.96776 18.0524,3.56974 15.4337,10.18995 7.3518,17.16998 0,0.75597 4.6584,0.72462 5.228,-0.0372 5.8359,-2.56245 5.2541,4.18824 10.6135,4.15793 7.3337,0.0717 3.5806,0.003 4.7628,2.71799 1.1719,-2.36983 5.4446,-11.61891 8.0765,-9.43424 1.9206,0.87632 5.9781,2.20525 6.0058,4.71247 2.8396,8.70945 15.9876,7.17952 16.4627,6.87604 -5.5003,-3.24913 -7.7634,-8.38306 -11.3898,-12.03838 -5.2771,-5.73337 1.4972,-3.45241 1.6574,-5.04817 -0.6347,-2.61518 -2.9997,-2.51761 -4.5557,-3.85239 -4.6844,-1.5176 -1.5725,-6.20932 -2.9512,-5.01808 -2.0836,-4.11569 -22.1455,-9.33268 -27.6978,-12.2657 -5.6161,-4.09682 -5.6153,1.33286 -8.4906,1.37753 -2.6797,0.1065 -2.8788,5.0937 -5.7974,5.17781 -0.9185,0.23119 -5.6952,-4.39077 -3.2615,-5.69643 1.1977,-4.06659 -3.5786,-6.99932 -7.0417,-7.76588 z m 36.9441,46.60008 c -3.3907,1.24316 -6.1164,13.11798 -6.4204,16.09699 -0.3439,2.72327 -3.1065,14.82867 -7.2998,14.96958 -7.1807,-5.63653 -11.8903,-7.99687 -16.67,-12.5722 5.3753,-5.09828 4.1062,-4.97853 6.4711,-9.15868 -6.977,-8.15091 -15.7276,-4.85931 -22.6236,-2.57439 -4.2563,2.37725 -7.1771,11.45452 -9.111,11.57352 -8.2089,-5.25376 -12.4391,-4.95227 -15.5311,0.70966 -11.4423,4.75765 -7.6046,4.87379 -17.4479,18.95071 -6.5352,5.94169 -24.1501,4.88879 -28.8874,13.18216 -2.1859,-3.44519 -2.8324,4.01895 -4.867,7.2188 -2.4585,17.05445 -3.1403,0.99679 -1.5531,17.91466 0.8856,5.3841 1.7488,25.93016 -3.4166,26.21063 -6.6748,4.44784 9.9787,9.17979 10.4063,5.69519 6.5761,-3.82047 13.4342,-4.05368 20.6039,-3.68681 7.1179,-7.56455 19.1115,-9.87434 28.4745,-10.59852 5.8517,-2.69866 14.8167,7.93938 13.9269,12.42161 -1.6988,3.50249 10.8669,2.80841 12.5794,7.0937 0.5463,3.1872 -2.6848,7.97077 4.1933,10.66559 5.9549,2.48369 12.143,-1.19051 14.4443,3.15902 3.5955,-3.39601 18.2712,-4.95765 18.6377,-9.06129 4.9063,-6.32837 10.9853,-15.83036 17.7581,-19.55703 1.8204,-1.4646 6.4854,-6.42447 6.5738,-8.15522 4.2312,-11.32988 9.5031,-20.00734 9.7848,-27.13129 -0.053,-0.73519 -0.103,-0.78184 -0.3099,-0.19668 -2.1406,3.65137 -7.4152,-6.18814 -7.0924,-8.60551 -6.213,-4.63072 -1.7782,-14.57602 -10.4584,-15.9071 -5.8449,-0.81123 -1.4444,-8.56261 -3.5716,-11.71688 -1.8972,-8.9355 -5.8896,-12.22575 -5.8508,-12.9602 -1.2054,-9.19003 -0.3964,-7.05923 -2.3286,-13.80412 -0.1031,-0.10317 -0.2591,-0.16552 -0.4144,-0.1759 z m -367.49939,5.65581 c -0.0297,-0.0111 -0.0519,-0.007 -0.0775,0.011 -2.39711,5.93497 -6.67354,9.59992 -8.23129,12.63385 -2.12308,2.36402 -7.89706,6.01045 -10.71642,6.03789 -1.89683,0.55857 -1.16827,2.69602 -2.17474,4.31774 -2.08358,8.55776 2.94152,10.56346 -2.79517,18.5107 -2.30152,2.19705 -1.73065,18.36622 2.84727,18.59404 2.57936,1.88582 4.96185,-0.39504 7.19583,-0.51743 4.20305,-0.9124 5.64498,-10.44618 7.24899,-14.04226 1.68089,-6.54179 5.34389,-12.23727 6.41913,-18.92054 0.51991,-10.3518 9.48924,-11.40975 0.36219,-26.55097 -0.0296,-0.0389 -0.0516,-0.0605 -0.0775,-0.0701 z m 454.44899,100.49033 c -0.5179,0 -0.9837,0.25903 -0.9837,0.56949 0.7599,2.24968 0.2442,12.37637 -0.6216,14.08405 -2.4159,4.67741 -5.3912,5.08584 -8.8019,7.76588 2.0798,1.43718 5.4644,5.37152 0.5185,6.0588 -3.1482,0.90632 -3.0166,-5.00138 -11.2859,1.24199 -4.77,4.51362 -11.8195,8.48886 -16.3079,10.40754 -6.4921,2.54497 -13.1869,6.18153 -18.4828,9.73411 -2.0191,1.24261 -1.9679,2.95173 0.1032,2.95173 4.2314,0.95233 1.7928,3.92785 10.251,0.052 3.8497,-1.71609 7.0004,-4.51752 9.37,-6.73094 2.2261,-2.01937 4.6075,-3.15836 7.8173,-3.62439 3.2097,-3.36042 9.6084,-6.22925 13.5128,-10.35549 4.1935,-1.99709 3.7687,1.71681 8.9054,-2.38226 2.9583,-1.00132 8.406,-9.77401 11.2338,-8.28451 3.0252,-0.81501 10.9981,-10.09441 3.6237,-6.47166 -2.9793,2.32527 -5.4251,-1.35819 -3.9339,-3.36625 2.1708,-4.51761 -4.0615,0.26163 -2.8472,-2.22599 1.907,-3.42203 0.8803,-6.72311 -2.0706,-9.42398 z m -118.2078,26.58726 c -0.4033,0.11208 -1.4777,1.70508 -1.5394,1.78733 -1.1844,2.34161 -4.51,11.40665 -1.6053,12.63383 5.8583,1.12979 11.44,-6.78668 13.5128,-9.99224 1.5532,-2.53718 0.9315,-3.10679 -2.5371,-2.12298 -2.3894,0.99789 -7.755,0.83286 -7.7139,-1.81275 0.077,-0.40275 0.025,-0.53038 -0.1169,-0.4931 z"
       style="fill:#313244;stroke-width:0.604492"
       id="world-map" />
    <circle
       style="fill:#f38ba8;stroke-width:19.6377;stroke-linecap:round"
       id="singapour"
       cx="988.18665"
       cy="391.45062"
       r="12.383887" />
    <circle
       style="fill:#f38ba8;stroke-width:19.6377;stroke-linecap:round"
       id="san-francisco"
       cx="132.04712"
       cy="240.36716"
       r="12.383887" />
    <circle
       style="fill:#f38ba8;stroke-width:19.6377;stroke-linecap:round"
       id="new-york"
       cx="296.34006"
       cy="251.09987"
       r="12.383887" />
    <circle
       style="fill:#f38ba8;stroke-width:19.6377;stroke-linecap:round"
       id="sao-paulo"
       cx="402.0159"
       cy="513.63818"
       r="12.383887" />
    <circle
       style="fill:#f38ba8;stroke-width:19.6377;stroke-linecap:round"
       id="sydney"
       cx="1151.6539"
       cy="561.52264"
       r="12.383887" />
    <circle
       style="fill:#f38ba8;stroke-width:19.6377;stroke-linecap:round"
       id="tokyo"
       cx="1103.7695"
       cy="244.49512"
       r="12.383887" />
    <circle
       style="fill:#f38ba8;stroke-width:19.6377;stroke-linecap:round"
       id="dublin"
       cx="568.78552"
       cy="170.19177"
       r="12.383887" />
  </g>
</svg>
